<?xml version="1.0" standalone="no"?>
<!DOCTYPE svg PUBLIC "-//W3C//DTD SVG 1.1//EN" "http://www.w3.org/Graphics/SVG/1.1/DTD/svg11.dtd" >
<svg xmlns="http://www.w3.org/2000/svg" xmlns:xlink="http://www.w3.org/1999/xlink" version="1.1">
<metadata></metadata>
<defs>
<font id="font_awesome_6_freeregular" horiz-adv-x="1280" >
<font-face units-per-em="2048" ascent="1792" descent="-256" />
<missing-glyph horiz-adv-x="500" />
<glyph horiz-adv-x="0" />
<glyph horiz-adv-x="682" />
<glyph unicode="#" horiz-adv-x="1792" d="M0 388q0 -56 36 -88q36 -36 92 -36h232l-40 -236q-4 -52 24 -96q28 -40 84 -52q8 -8 20 -8q100 8 128 108l44 276h380l-40 -236q-4 -52 24 -96q28 -40 84 -52h20q100 8 128 108l44 276h276q56 0 92 36t36 88q0 56 -36 92t-92 36h-232l84 512h276q56 0 92 36t36 88 q0 60 -36 100t-92 40h-232l40 236q4 52 -24 96q-28 40 -84 48q-52 8 -96 -20q-40 -28 -52 -84l-44 -276h-380l40 236q4 52 -24 96q-28 40 -84 48q-52 8 -96 -20q-40 -28 -52 -84l-44 -276h-276q-56 0 -92 -36q-36 -40 -36 -92q0 -56 36 -92t92 -36h232l-84 -512h-276 q-56 0 -92 -36q-36 -40 -36 -92zM664 516l84 512h380l-84 -512h-380z" />
<glyph unicode="0" d="M0 516q8 -272 188 -452t452 -188q272 8 452 188t188 452v508q-8 272 -188 452t-452 188q-272 -8 -452 -188t-188 -452v-508zM256 512v512q4 164 112 272t272 112q164 -4 272 -112t112 -272v-512q-4 -164 -112 -272t-272 -112q-164 4 -272 112t-112 272z" />
<glyph unicode="1" horiz-adv-x="1024" d="M0 0q0 56 36 92t92 36h256v1168l-184 -124q-48 -28 -96 -16q-52 8 -84 52q-28 48 -16 96q8 52 52 84l384 256q64 40 132 4q64 -36 68 -112v-1408h256q56 0 92 -36t36 -92t-36 -92t-92 -36h-768q-56 0 -92 36t-36 92z" />
<glyph unicode="2" d="M0 1288q4 48 40 88l140 124q180 168 436 160q252 -20 416 -208q148 -184 140 -412q-12 -224 -180 -392l-544 -520h704q56 0 92 -36t36 -92t-36 -92t-92 -36h-1024q-84 4 -120 80q-28 80 32 140l772 740q96 96 104 224q4 124 -80 232q-92 108 -236 116q-140 4 -244 -92 l-140 -128q-44 -36 -96 -32q-48 4 -88 40q-36 44 -32 96z" />
<glyph unicode="3" d="M0 1536q0 56 36 92t92 36h960q84 -4 120 -80q28 -84 -32 -144l-528 -480h88q228 -4 384 -160q152 -152 160 -384q-4 -232 -160 -384q-152 -156 -384 -160h-320q-144 0 -252 80t-152 212q-16 52 4 100q24 44 76 64q52 16 96 -8q48 -24 64 -72q44 -112 164 -120h320 q124 4 204 84t84 204q-4 124 -84 204t-204 84h-416q-84 4 -120 80q-28 84 32 144l528 480h-632q-56 0 -92 36t-36 92z" />
<glyph unicode="4" horiz-adv-x="1536" d="M12 508l512 1084q24 48 72 64t100 -4q48 -24 64 -72t-4 -100l-424 -896h692v568q0 56 36 92t92 36t92 -36t36 -92v-568h128q56 -4 92 -40t36 -88q0 -56 -36 -92t-92 -36h-128v-328q0 -56 -36 -92t-92 -36t-92 36t-36 92v328h-896q-68 0 -108 60q-36 60 -8 120z" />
<glyph unicode="5" d="M4 848l128 712q24 96 124 104h768q56 0 92 -36t36 -92t-36 -92t-92 -36h-660l-84 -452h460q228 -8 380 -160q156 -152 160 -384q-4 -228 -160 -380q-152 -156 -380 -160h-320q-144 0 -256 80t-156 216q-16 52 4 100q24 44 76 64q52 16 96 -8q48 -24 64 -76 q48 -112 172 -120h320q120 4 200 84t84 200q-4 124 -84 204t-200 84h-612q-60 0 -100 44q-36 48 -24 104z" />
<glyph unicode="6" d="M0 512q8 -272 188 -452t452 -188q272 8 452 188t188 452q-8 264 -176 440q-172 180 -432 196l256 304q36 44 32 96q-4 48 -44 84q-40 32 -84 32q-56 0 -96 -44q-132 -156 -236 -276q-192 -220 -304 -360q-108 -140 -152 -244t-44 -228zM256 512q4 164 112 268 q108 108 272 112q164 -4 272 -112t112 -268q-4 -160 -112 -272q-108 -108 -272 -112q-164 4 -272 112t-112 272z" />
<glyph unicode="7" d="M0 1536q0 56 36 92t92 36h1024q72 -4 112 -64q32 -64 0 -128l-896 -1536q-40 -64 -112 -64q-32 0 -64 16q-48 28 -60 80q-12 48 12 96l784 1344h-800q-56 0 -92 36t-36 92z" />
<glyph unicode="8" d="M0 384q4 -216 152 -360q144 -148 360 -152h256q216 4 360 152q148 144 152 360q0 128 -56 232q-56 108 -152 180q140 144 144 356q-4 216 -152 360q-144 148 -360 152h-128q-216 -4 -360 -152q-148 -144 -152 -360q4 -212 144 -356q-96 -72 -152 -180q-56 -104 -56 -232z M256 384q4 108 76 180t180 76h256q108 -4 180 -76t76 -180q-4 -108 -76 -180t-180 -76h-256q-108 4 -180 76t-76 180zM320 1152q4 108 76 180t180 76h128q108 -4 180 -76t76 -180q-4 -108 -76 -180t-180 -76h-128q-108 4 -180 76t-76 180z" />
<glyph unicode="9" d="M0 1024q8 -264 176 -440q172 -180 432 -196l-256 -304q-36 -44 -32 -96q4 -48 44 -84q40 -32 84 -32q56 0 96 44q132 156 236 276q196 220 304 360t152 244t44 228q-8 272 -188 452t-452 188q-272 -8 -452 -188t-188 -452zM256 1020q4 160 112 272q108 108 272 112 q164 -4 272 -112t112 -272q-4 -164 -112 -268q-108 -108 -272 -112q-164 4 -272 112t-112 268z" />
<glyph unicode="A" horiz-adv-x="1536" d="M8 -48q20 -48 72 -72q24 -8 48 -8l48 8q48 20 72 72l124 304h792l124 -304q40 -76 120 -80q24 0 48 8q52 24 72 72q8 24 8 48t-8 48l-640 1536q-36 76 -120 80q-84 -4 -116 -80l-640 -1536q-11 -27 -11 -53q0 -22 7 -43zM476 512l292 692l288 -692h-580z" />
<glyph unicode="a" horiz-adv-x="1536" d="M8 -48q20 -48 72 -72q24 -8 48 -8l48 8q48 20 72 72l124 304h792l124 -304q40 -76 120 -80q24 0 48 8q52 24 72 72q8 24 8 48t-8 48l-640 1536q-36 76 -120 80q-84 -4 -116 -80l-640 -1536q-11 -27 -11 -53q0 -22 7 -43zM476 512l292 692l288 -692h-580z" />
<glyph unicode="B" d="M0 0q0 -56 36 -92t92 -36h640q216 4 360 152q148 144 152 360q0 140 -68 256q-68 112 -184 184q120 136 124 328q-4 216 -152 360q-144 148 -360 152h-512q-56 0 -92 -36t-36 -92v-1536zM256 128v512h512q108 -4 180 -76t76 -180q-4 -108 -76 -180t-180 -76h-512z M256 896v512h384q108 -4 180 -76t76 -180q-4 -108 -76 -180t-180 -76h-384z" />
<glyph unicode="b" d="M0 0q0 -56 36 -92t92 -36h640q216 4 360 152q148 144 152 360q0 140 -68 256q-68 112 -184 184q120 136 124 328q-4 216 -152 360q-144 148 -360 152h-512q-56 0 -92 -36t-36 -92v-1536zM256 128v512h512q108 -4 180 -76t76 -180q-4 -108 -76 -180t-180 -76h-512z M256 896v512h384q108 -4 180 -76t76 -180q-4 -108 -76 -180t-180 -76h-384z" />
<glyph unicode="C" horiz-adv-x="1536" d="M-4 768q0 212 104 416t300 336q196 136 476 140q200 -4 344 -72q148 -68 232 -148q80 -84 80 -132q0 -40 -28 -84q-32 -40 -100 -44q-64 4 -132 72q-56 52 -148 100q-88 48 -248 52q-296 -12 -460 -208q-160 -192 -164 -428q4 -236 164 -432t460 -208q160 4 252 52 t148 100q68 68 132 72q68 -4 96 -44q28 -44 28 -84q0 -48 -84 -132t-228 -148q-148 -68 -344 -72q-276 4 -472 136q-196 136 -300 340q-108 204 -108 420z" />
<glyph unicode="c" horiz-adv-x="1536" d="M-4 768q0 212 104 416t300 336q196 136 476 140q200 -4 344 -72q148 -68 232 -148q80 -84 80 -132q0 -40 -28 -84q-32 -40 -100 -44q-64 4 -132 72q-56 52 -148 100q-88 48 -248 52q-296 -12 -460 -208q-160 -192 -164 -428q4 -236 164 -432t460 -208q160 4 252 52 t148 100q68 68 132 72q68 -4 96 -44q28 -44 28 -84q0 -48 -84 -132t-228 -148q-148 -68 -344 -72q-276 4 -472 136q-196 136 -300 340q-108 204 -108 420z" />
<glyph unicode="D" horiz-adv-x="1536" d="M0 0q0 -56 36 -92t92 -36h512q248 4 452 124q200 120 320 320q120 204 124 452q-4 248 -124 452q-120 200 -320 320q-204 120 -452 124h-512q-56 0 -92 -36t-36 -92v-1536zM256 128v1280h384q272 -8 452 -188t188 -448q-8 -268 -188 -452t-452 -192h-384z" />
<glyph unicode="d" horiz-adv-x="1536" d="M0 0q0 -56 36 -92t92 -36h512q248 4 452 124q200 120 320 320q120 204 124 452q-4 248 -124 452q-120 200 -320 320q-204 120 -452 124h-512q-56 0 -92 -36t-36 -92v-1536zM256 128v1280h384q272 -8 452 -188t188 -448q-8 -268 -188 -452t-452 -192h-384z" />
<glyph unicode="E" d="M0 0v1536q0 56 36 92t92 36h1024q56 0 92 -36t36 -92t-36 -92t-92 -36h-896v-512h640q56 0 92 -36t36 -92t-36 -92t-92 -36h-640v-512h896q56 0 92 -36t36 -92t-36 -92t-92 -36h-1024q-56 0 -92 36t-36 92z" />
<glyph unicode="e" d="M0 0v1536q0 56 36 92t92 36h1024q56 0 92 -36t36 -92t-36 -92t-92 -36h-896v-512h640q56 0 92 -36t36 -92t-36 -92t-92 -36h-640v-512h896q56 0 92 -36t36 -92t-36 -92t-92 -36h-1024q-56 0 -92 36t-36 92z" />
<glyph unicode="F" d="M0 4v1536q0 52 36 88t92 36h1024q56 0 92 -36t36 -92t-36 -92t-92 -36h-896v-512h640q56 0 92 -36t36 -88t-36 -88q-36 -40 -92 -40h-640v-640q0 -56 -36 -92t-92 -36t-92 36t-36 92z" />
<glyph unicode="f" d="M0 4v1536q0 52 36 88t92 36h1024q56 0 92 -36t36 -92t-36 -92t-92 -36h-896v-512h640q56 0 92 -36t36 -88t-36 -88q-36 -40 -92 -40h-640v-640q0 -56 -36 -92t-92 -36t-92 36t-36 92z" />
<glyph unicode="G" horiz-adv-x="1792" d="M4 768q4 252 124 452q120 204 320 324q200 116 448 120q172 -4 324 -64q152 -56 248 -140q96 -80 100 -148q-4 -56 -40 -92t-88 -36q-64 4 -132 68q-56 56 -152 104t-260 52q-268 -8 -448 -188q-180 -176 -188 -452v-11q0 -76 48 -213q48 -152 188 -276 q140 -128 400 -136q244 8 416 148t216 360h-536q-56 0 -92 36t-36 92t36 88q36 36 92 36h672q56 0 92 -32q36 -36 36 -92q-4 -288 -140 -484q-132 -200 -336 -304q-208 -100 -424 -100q-268 4 -464 128q-200 120 -312 324q-112 200 -112 436z" />
<glyph unicode="g" horiz-adv-x="1792" d="M4 768q4 252 124 452q120 204 320 324q200 116 448 120q172 -4 324 -64q152 -56 248 -140q96 -80 100 -148q-4 -56 -40 -92t-88 -36q-64 4 -132 68q-56 56 -152 104t-260 52q-268 -8 -448 -188q-180 -176 -188 -452v-11q0 -76 48 -213q48 -152 188 -276 q140 -128 400 -136q244 8 416 148t216 360h-536q-56 0 -92 36t-36 92t36 88q36 36 92 36h672q56 0 92 -32q36 -36 36 -92q-4 -288 -140 -484q-132 -200 -336 -304q-208 -100 -424 -100q-268 4 -464 128q-200 120 -312 324q-112 200 -112 436z" />
<glyph unicode="H" horiz-adv-x="1536" d="M0 0v1536q0 56 36 92t92 36t92 -36t36 -92v-512h1024v512q0 56 36 92t92 36t92 -36t36 -92v-1536q0 -56 -36 -92t-92 -36t-92 36t-36 92v768h-1024v-768q0 -56 -36 -92t-92 -36t-92 36t-36 92z" />
<glyph unicode="h" horiz-adv-x="1536" d="M0 0v1536q0 56 36 92t92 36t92 -36t36 -92v-512h1024v512q0 56 36 92t92 36t92 -36t36 -92v-1536q0 -56 -36 -92t-92 -36t-92 36t-36 92v768h-1024v-768q0 -56 -36 -92t-92 -36t-92 36t-36 92z" />
<glyph unicode="I" d="M0 0q0 56 36 92t92 36h384v1280h-384q-56 0 -92 36t-36 92t36 92t92 36h1024q56 0 92 -36t36 -92t-36 -92t-92 -36h-384v-1280h384q56 0 92 -36t36 -92t-36 -92t-92 -36h-1024q-56 0 -92 36t-36 92z" />
<glyph unicode="i" d="M0 0q0 56 36 92t92 36h384v1280h-384q-56 0 -92 36t-36 92t36 92t92 36h1024q56 0 92 -36t36 -92t-36 -92t-92 -36h-384v-1280h384q56 0 92 -36t36 -92t-36 -92t-92 -36h-1024q-56 0 -92 36t-36 92z" />
<glyph unicode="J" d="M0 500v140q0 56 36 92t92 36t92 -36t36 -92v-140q4 -160 112 -264t272 -108q164 4 272 108t112 264v1036q0 56 36 92t92 36t92 -36t36 -92v-1036q-8 -268 -188 -444t-452 -184q-272 8 -452 184t-188 444z" />
<glyph unicode="j" d="M0 500v140q0 56 36 92t92 36t92 -36t36 -92v-140q4 -160 112 -264t272 -108q164 4 272 108t112 264v1036q0 56 36 92t92 36t92 -36t36 -92v-1036q-8 -268 -188 -444t-452 -184q-272 8 -452 184t-188 444z" />
<glyph unicode="K" d="M0 0v1536q0 56 36 92t92 36t92 -36t36 -92v-732l804 820q40 40 92 40q48 0 88 -36q40 -40 40 -92q0 -48 -36 -88l-548 -564l560 -812q23 -32 23 -68q0 -14 -3 -28q-8 -48 -52 -80q-32 -24 -72 -24q-64 0 -104 56l-536 772l-256 -264v-436q0 -56 -36 -92t-92 -36t-92 36 t-36 92z" />
<glyph unicode="k" d="M0 0v1536q0 56 36 92t92 36t92 -36t36 -92v-732l804 820q40 40 92 40q48 0 88 -36q40 -40 40 -92q0 -48 -36 -88l-548 -564l560 -812q23 -32 23 -68q0 -14 -3 -28q-8 -48 -52 -80q-32 -24 -72 -24q-64 0 -104 56l-536 772l-256 -264v-436q0 -56 -36 -92t-92 -36t-92 36 t-36 92z" />
<glyph unicode="L" d="M128 0v1536q0 56 36 92t92 36t92 -36t36 -92v-1408h768q56 0 92 -36t36 -92t-36 -92t-92 -36h-896q-56 0 -92 36t-36 92z" />
<glyph unicode="l" d="M128 0v1536q0 56 36 92t92 36t92 -36t36 -92v-1408h768q56 0 92 -36t36 -92t-36 -92t-92 -36h-896q-56 0 -92 36t-36 92z" />
<glyph unicode="M" horiz-adv-x="1792" d="M0 0v1536q4 92 92 124q19 4 37 4q63 0 107 -56l660 -992l660 992q44 56 107 56q18 0 37 -4q88 -32 92 -124v-1536q0 -56 -36 -92t-92 -36t-92 36t-36 92v1112l-532 -800q-40 -52 -108 -52t-108 52l-532 800v-1112q0 -56 -36 -92t-92 -36t-92 36t-36 92z" />
<glyph unicode="m" horiz-adv-x="1792" d="M0 0v1536q4 92 92 124q19 4 37 4q63 0 107 -56l660 -992l660 992q44 56 107 56q18 0 37 -4q88 -32 92 -124v-1536q0 -56 -36 -92t-92 -36t-92 36t-36 92v1112l-532 -800q-40 -52 -108 -52t-108 52l-532 800v-1112q0 -56 -36 -92t-92 -36t-92 36t-36 92z" />
<glyph unicode="N" horiz-adv-x="1536" d="M0 0v1536q4 88 84 120q23 7 44 7q56 0 100 -47l1052 -1264v1184q0 56 36 92t92 36t92 -36t36 -92v-1536q-4 -88 -84 -120q-20 -8 -44 -8q-60 0 -100 48l-1052 1264v-1184q0 -56 -36 -92t-92 -36t-92 36t-36 92z" />
<glyph unicode="n" horiz-adv-x="1536" d="M0 0v1536q4 88 84 120q23 7 44 7q56 0 100 -47l1052 -1264v1184q0 56 36 92t92 36t92 -36t36 -92v-1536q-4 -88 -84 -120q-20 -8 -44 -8q-60 0 -100 48l-1052 1264v-1184q0 -56 -36 -92t-92 -36t-92 36t-36 92z" />
<glyph unicode="O" horiz-adv-x="1792" d="M0 768q4 -248 124 -452q120 -200 320 -320q204 -120 452 -124q248 4 452 124q200 120 320 320q120 204 124 452q-4 248 -124 452q-120 200 -320 320q-204 120 -452 124q-248 -4 -452 -124q-200 -120 -320 -320q-120 -204 -124 -452zM256 768q8 272 188 452 q180 176 452 184q272 -8 452 -188t188 -448q-8 -268 -188 -452q-180 -180 -452 -188q-272 8 -452 188t-188 452z" />
<glyph unicode="o" horiz-adv-x="1792" d="M0 768q4 -248 124 -452q120 -200 320 -320q204 -120 452 -124q248 4 452 124q200 120 320 320q120 204 124 452q-4 248 -124 452q-120 200 -320 320q-204 120 -452 124q-248 -4 -452 -124q-200 -120 -320 -320q-120 -204 -124 -452zM256 768q8 272 188 452 q180 176 452 184q272 -8 452 -188t188 -448q-8 -268 -188 -452q-180 -180 -452 -188q-272 8 -452 188t-188 452z" />
<glyph unicode="P" d="M0 0q0 -56 36 -92t92 -36t92 36t36 92v384h384q272 8 452 188t188 448q-8 268 -188 452t-452 192h-512q-56 0 -92 -36t-36 -92v-1536zM256 640v768h384q164 -4 272 -112t112 -272q-4 -164 -112 -272t-272 -112h-384z" />
<glyph unicode="p" d="M0 0q0 -56 36 -92t92 -36t92 36t36 92v384h384q272 8 452 188t188 448q-8 268 -188 452t-452 192h-512q-56 0 -92 -36t-36 -92v-1536zM256 640v768h384q164 -4 272 -112t112 -272q-4 -164 -112 -272t-272 -112h-384z" />
<glyph unicode="Q" horiz-adv-x="1792" d="M0 768q4 -248 124 -452q116 -200 320 -320q200 -120 448 -124q272 4 484 144l188 -228q40 -44 96 -44q64 4 96 44t32 84t-28 80l-188 228q212 244 220 588q-4 248 -124 452q-116 200 -320 320q-200 120 -448 124q-248 -4 -452 -124t-324 -320q-120 -204 -124 -452z M256 768q8 272 188 452q180 176 452 184q272 -8 452 -188t188 -448q-4 -220 -132 -384l-280 336q-44 48 -100 48q-64 -4 -96 -44t-32 -84t28 -80l288 -344q-140 -84 -316 -88q-272 8 -452 188t-188 452z" />
<glyph unicode="q" horiz-adv-x="1792" d="M0 768q4 -248 124 -452q116 -200 320 -320q200 -120 448 -124q272 4 484 144l188 -228q40 -44 96 -44q64 4 96 44t32 84t-28 80l-188 228q212 244 220 588q-4 248 -124 452q-116 200 -320 320q-200 120 -448 124q-248 -4 -452 -124t-324 -320q-120 -204 -124 -452z M256 768q8 272 188 452q180 176 452 184q272 -8 452 -188t188 -448q-4 -220 -132 -384l-280 336q-44 48 -100 48q-64 -4 -96 -44t-32 -84t28 -80l288 -344q-140 -84 -316 -88q-272 8 -452 188t-188 452z" />
<glyph unicode="R" d="M0 0q0 -56 36 -92t92 -36t92 36t36 92v512h372l420 -588q40 -52 104 -52q40 0 76 24q40 32 52 84q2 10 2 19q0 38 -26 77l-340 476q160 68 260 208q100 144 104 328q-8 244 -168 408q-164 160 -408 168h-576q-56 0 -92 -36t-36 -92v-1536zM256 772v636h448 q136 -4 228 -92q88 -92 92 -228q-4 -136 -92 -224q-92 -88 -228 -92h-448z" />
<glyph unicode="r" d="M0 0q0 -56 36 -92t92 -36t92 36t36 92v512h372l420 -588q40 -52 104 -52q40 0 76 24q40 32 52 84q2 10 2 19q0 38 -26 77l-340 476q160 68 260 208q100 144 104 328q-8 244 -168 408q-164 160 -408 168h-576q-56 0 -92 -36t-36 -92v-1536zM256 772v636h448 q136 -4 228 -92q88 -92 92 -228q-4 -136 -92 -224q-92 -88 -228 -92h-448z" />
<glyph unicode="S" horiz-adv-x="1536" d="M136 180q24 48 72 68q22 10 46 10t50 -10q236 -92 436 -116q50 -5 94 -5q133 0 214 45q84 44 100 148q5 25 5 47q0 87 -73 141q-96 68 -348 136q-144 40 -296 104q-148 60 -240 184q-68 89 -68 227q0 48 8 101q36 196 204 308q152 97 387 97q193 0 441 -65q52 -16 76 -60 q18 -28 18 -61q0 -19 -6 -39q-12 -52 -56 -76q-32 -16 -66 -16q-17 0 -34 4q-228 58 -369 58q-25 0 -47 -2q-148 -12 -204 -56q-76 -48 -92 -136q-5 -26 -5 -49q0 -88 73 -139q96 -68 348 -136q144 -40 296 -104q148 -64 240 -184q68 -89 68 -227q0 -48 -8 -101 q-40 -224 -228 -328q-145 -76 -319 -76h-17q-188 4 -360 52q-168 44 -268 88q-48 24 -68 68q-11 27 -11 55q0 22 7 45z" />
<glyph unicode="s" horiz-adv-x="1536" d="M136 180q24 48 72 68q22 10 46 10t50 -10q236 -92 436 -116q50 -5 94 -5q133 0 214 45q84 44 100 148q5 25 5 47q0 87 -73 141q-96 68 -348 136q-144 40 -296 104q-148 60 -240 184q-68 89 -68 227q0 48 8 101q36 196 204 308q152 97 387 97q193 0 441 -65q52 -16 76 -60 q18 -28 18 -61q0 -19 -6 -39q-12 -52 -56 -76q-32 -16 -66 -16q-17 0 -34 4q-228 58 -369 58q-25 0 -47 -2q-148 -12 -204 -56q-76 -48 -92 -136q-5 -26 -5 -49q0 -88 73 -139q96 -68 348 -136q144 -40 296 -104q148 -64 240 -184q68 -89 68 -227q0 -48 -8 -101 q-40 -224 -228 -328q-145 -76 -319 -76h-17q-188 4 -360 52q-168 44 -268 88q-48 24 -68 68q-11 27 -11 55q0 22 7 45z" />
<glyph unicode="T" horiz-adv-x="1536" d="M0 1536q0 56 36 92t92 36h1280q56 0 92 -36t36 -92t-36 -92t-92 -36h-512v-1408q0 -56 -36 -92t-92 -36t-92 36t-36 92v1408h-512q-56 0 -92 36t-36 92z" />
<glyph unicode="t" horiz-adv-x="1536" d="M0 1536q0 56 36 92t92 36h1280q56 0 92 -36t36 -92t-36 -92t-92 -36h-512v-1408q0 -56 -36 -92t-92 -36t-92 36t-36 92v1408h-512q-56 0 -92 36t-36 92z" />
<glyph unicode="U" horiz-adv-x="1536" d="M0 632v904q0 56 36 92t92 36t92 -36t36 -92v-904q4 -212 152 -356q144 -144 360 -148q216 4 360 148q148 144 152 356v904q0 56 36 92t92 36t92 -36t36 -92v-904q-8 -320 -224 -536q-220 -216 -544 -224q-324 8 -544 224q-216 216 -224 536z" />
<glyph unicode="u" horiz-adv-x="1536" d="M0 632v904q0 56 36 92t92 36t92 -36t36 -92v-904q4 -212 152 -356q144 -144 360 -148q216 4 360 148q148 144 152 356v904q0 56 36 92t92 36t92 -36t36 -92v-904q-8 -320 -224 -536q-220 -216 -544 -224q-324 8 -544 224q-216 216 -224 536z" />
<glyph unicode="V" horiz-adv-x="1536" d="M8 1488q-8 24 -8 48t8 48q20 48 72 72q24 8 48 8l48 -8q48 -20 72 -72l520 -1252l524 1252q20 52 68 72q24 8 48 8l48 -8q52 -24 72 -72q8 -24 8 -48t-8 -48l-640 -1536q-36 -76 -120 -80q-84 4 -120 80z" />
<glyph unicode="v" horiz-adv-x="1536" d="M8 1488q-8 24 -8 48t8 48q20 48 72 72q24 8 48 8l48 -8q48 -20 72 -72l520 -1252l524 1252q20 52 68 72q24 8 48 8l48 -8q52 -24 72 -72q8 -24 8 -48t-8 -48l-640 -1536q-36 -76 -120 -80q-84 4 -120 80z" />
<glyph unicode="W" horiz-adv-x="2304" d="M8 1492q-7 23 -7 45q0 27 11 51q20 48 72 68q23 7 45 7q27 0 51 -11q48 -20 68 -72l440 -1172l340 1168q32 80 124 88q92 -4 124 -92l340 -1168l440 1172q20 52 68 72q24 11 51 11q22 0 45 -7q52 -16 72 -64q10 -22 10 -46t-10 -50l-576 -1536q-32 -80 -120 -84h-4 q-88 8 -120 92l-320 1116l-324 -1116q-32 -84 -120 -92q-88 0 -124 84z" />
<glyph unicode="w" horiz-adv-x="2304" d="M8 1492q-7 23 -7 45q0 27 11 51q20 48 72 68q23 7 45 7q27 0 51 -11q48 -20 68 -72l440 -1172l340 1168q32 80 124 88q92 -4 124 -92l340 -1168l440 1172q20 52 68 72q24 11 51 11q22 0 45 -7q52 -16 72 -64q10 -22 10 -46t-10 -50l-576 -1536q-32 -80 -120 -84h-4 q-88 8 -120 92l-320 1116l-324 -1116q-32 -84 -120 -92q-88 0 -124 84z" />
<glyph unicode="X" horiz-adv-x="1536" d="M0 -8v11q0 45 28 81l572 688l-572 680q-28 39 -28 85v11q4 52 48 88q36 28 81 28h11q52 -4 88 -48l540 -648l540 648q36 44 88 48h11q45 0 81 -28q44 -36 48 -88v-11q0 -45 -28 -81l-572 -688l572 -688q28 -36 28 -81v-11q-4 -52 -44 -88q-40 -28 -84 -28q-56 0 -100 48 l-540 652l-540 -652q-44 -44 -100 -44q-44 0 -80 28q-44 36 -48 88z" />
<glyph unicode="x" horiz-adv-x="1536" d="M0 -8v11q0 45 28 81l572 688l-572 680q-28 39 -28 85v11q4 52 48 88q36 28 81 28h11q52 -4 88 -48l540 -648l540 648q36 44 88 48h11q45 0 81 -28q44 -36 48 -88v-11q0 -45 -28 -81l-572 -688l572 -688q28 -36 28 -81v-11q-4 -52 -44 -88q-40 -28 -84 -28q-56 0 -100 48 l-540 652l-540 -652q-44 -44 -100 -44q-44 0 -80 28q-44 36 -48 88z" />
<glyph unicode="Y" horiz-adv-x="1536" d="M0 1556q12 52 52 84q38 26 77 26l19 -2q52 -12 84 -52l536 -748l532 748q32 44 84 52q11 2 21 2l75 -22q44 -36 52 -88q3 -13 3 -26q0 -35 -23 -70l-616 -860v-600q0 -56 -36 -88q-36 -36 -92 -36t-92 36q-36 32 -36 88v600l-616 860q-26 38 -26 77q0 9 2 19z" />
<glyph unicode="y" horiz-adv-x="1536" d="M0 1556q12 52 52 84q38 26 77 26l19 -2q52 -12 84 -52l536 -748l532 748q32 44 84 52q11 2 21 2l75 -22q44 -36 52 -88q3 -13 3 -26q0 -35 -23 -70l-616 -860v-600q0 -56 -36 -88q-36 -36 -92 -36t-92 36q-36 32 -36 88v600l-616 860q-26 38 -26 77q0 9 2 19z" />
<glyph unicode="Z" horiz-adv-x="1536" d="M0 1536q0 56 36 92t92 36h1280q80 -4 116 -72q13 -30 13 -58q0 -42 -29 -78l-1108 -1328h1008q56 0 92 -36t36 -92t-36 -92t-92 -36h-1280q-80 4 -116 72q-13 30 -13 58q0 42 29 78l1108 1328h-1008q-56 0 -92 36t-36 92z" />
<glyph unicode="z" horiz-adv-x="1536" d="M0 1536q0 56 36 92t92 36h1280q80 -4 116 -72q13 -30 13 -58q0 -42 -29 -78l-1108 -1328h1008q56 0 92 -36t36 -92t-36 -92t-92 -36h-1280q-80 4 -116 72q-13 30 -13 58q0 42 29 78l1108 1328h-1008q-56 0 -92 36t-36 92z" />
<glyph unicode="&#xa9;" horiz-adv-x="2048" d="M0 768q4 -288 140 -516q136 -232 368 -368q228 -136 516 -140q288 4 516 140q232 136 368 368q136 228 140 516q-4 288 -140 516q-136 232 -368 368q-228 136 -516 140q-288 -4 -516 -140q-232 -136 -368 -368q-136 -228 -140 -516zM192 768q8 352 244 588t588 244 q352 -8 588 -244t244 -588q-8 -352 -244 -588t-588 -244q-352 8 -588 244t-244 588zM512 768q0 -204 148 -360q152 -148 360 -152q212 4 360 152q56 68 0 136q-68 52 -136 -4q-92 -92 -224 -92q-128 0 -224 92q-92 100 -92 228t92 228q96 92 224 92q132 0 224 -92 q68 -56 136 -4q56 68 0 136q-148 148 -360 152q-208 -4 -360 -152q-148 -156 -148 -360z" />
<glyph unicode="&#xae;" horiz-adv-x="2048" d="M0 768q4 -288 140 -516q136 -232 368 -368q228 -136 516 -140q288 4 516 140q232 136 368 368q136 228 140 516q-4 288 -140 516q-136 232 -368 368q-228 136 -516 140q-288 -4 -516 -140q-232 -136 -368 -368q-136 -228 -140 -516zM192 768q8 352 244 588t588 244 q352 -8 588 -244t244 -588q-8 -352 -244 -588t-588 -244q-352 8 -588 244t-244 588zM640 352q8 -88 96 -96q88 8 96 96v288h240l152 -328q28 -56 88 -56q20 0 40 8q76 44 48 128l-140 300q140 92 148 268q-4 136 -92 228q-92 88 -228 92h-352q-88 -8 -96 -96v-832zM832 832 v256h256q56 0 92 -36t36 -92t-36 -92t-92 -36h-256z" />
<glyph unicode="&#x2000;" horiz-adv-x="896" />
<glyph unicode="&#x2001;" horiz-adv-x="1792" />
<glyph unicode="&#x2002;" horiz-adv-x="896" />
<glyph unicode="&#x2003;" horiz-adv-x="1792" />
<glyph unicode="&#x2004;" horiz-adv-x="597" />
<glyph unicode="&#x2005;" horiz-adv-x="448" />
<glyph unicode="&#x2006;" horiz-adv-x="298" />
<glyph unicode="&#x2007;" horiz-adv-x="298" />
<glyph unicode="&#x2008;" horiz-adv-x="224" />
<glyph unicode="&#x2009;" horiz-adv-x="358" />
<glyph unicode="&#x200a;" horiz-adv-x="99" />
<glyph unicode="&#x202f;" horiz-adv-x="358" />
<glyph unicode="&#x205f;" horiz-adv-x="448" />
<glyph unicode="&#x25fc;" horiz-adv-x="1660" d="M0 0v1660h1660v-1660h-1660z" />
</font>
</defs>
</svg>
